<svg id="visual" viewBox="0 0 900 600" width="900" height="600" xmlns="http://www.w3.org/2000/svg" xmlns:xlink="http://www.w3.org/1999/xlink" version="1.1"><path d="M0 97L13.7 90C27.3 83 54.7 69 82 81C109.3 93 136.7 131 163.8 132C191 133 218 97 245.2 93C272.3 89 299.7 117 327 131C354.3 145 381.7 145 409 140C436.3 135 463.7 125 491 124C518.3 123 545.7 131 573 132C600.3 133 627.7 127 654.8 119C682 111 709 101 736.2 101C763.3 101 790.7 111 818 115C845.3 119 872.7 117 886.3 116L900 115L900 0L886.3 0C872.7 0 845.3 0 818 0C790.7 0 763.3 0 736.2 0C709 0 682 0 654.8 0C627.7 0 600.3 0 573 0C545.7 0 518.3 0 491 0C463.7 0 436.3 0 409 0C381.7 0 354.3 0 327 0C299.7 0 272.3 0 245.2 0C218 0 191 0 163.8 0C136.7 0 109.3 0 82 0C54.7 0 27.3 0 13.7 0L0 0Z" fill="#6198ff"></path><path d="M0 181L13.7 176C27.3 171 54.7 161 82 166C109.3 171 136.7 191 163.8 183C191 175 218 139 245.2 141C272.3 143 299.7 183 327 201C354.3 219 381.7 215 409 207C436.3 199 463.7 187 491 192C518.3 197 545.7 219 573 216C600.3 213 627.7 185 654.8 175C682 165 709 173 736.2 182C763.3 191 790.7 201 818 200C845.3 199 872.7 187 886.3 181L900 175L900 113L886.3 114C872.7 115 845.3 117 818 113C790.7 109 763.3 99 736.2 99C709 99 682 109 654.8 117C627.7 125 600.3 131 573 130C545.7 129 518.3 121 491 122C463.7 123 436.3 133 409 138C381.7 143 354.3 143 327 129C299.7 115 272.3 87 245.2 91C218 95 191 131 163.8 130C136.7 129 109.3 91 82 79C54.7 67 27.3 81 13.7 88L0 95Z" fill="#3c80ff"></path><path d="M0 391L13.7 384C27.3 377 54.7 363 82 366C109.3 369 136.7 389 163.8 395C191 401 218 393 245.2 382C272.3 371 299.7 357 327 343C354.3 329 381.7 315 409 304C436.3 293 463.7 285 491 295C518.3 305 545.7 333 573 356C600.3 379 627.7 397 654.8 386C682 375 709 335 736.2 325C763.3 315 790.7 335 818 357C845.3 379 872.7 403 886.3 415L900 427L900 173L886.3 179C872.7 185 845.3 197 818 198C790.7 199 763.3 189 736.2 180C709 171 682 163 654.8 173C627.7 183 600.3 211 573 214C545.7 217 518.3 195 491 190C463.7 185 436.3 197 409 205C381.7 213 354.3 217 327 199C299.7 181 272.3 141 245.2 139C218 137 191 173 163.8 181C136.7 189 109.3 169 82 164C54.7 159 27.3 169 13.7 174L0 179Z" fill="#0066ff"></path><path d="M0 553L13.7 543C27.3 533 54.7 513 82 513C109.3 513 136.7 533 163.8 534C191 535 218 517 245.2 510C272.3 503 299.7 507 327 503C354.3 499 381.7 487 409 488C436.3 489 463.7 503 491 507C518.3 511 545.7 505 573 511C600.3 517 627.7 535 654.8 538C682 541 709 529 736.2 518C763.3 507 790.7 497 818 498C845.3 499 872.7 511 886.3 517L900 523L900 425L886.3 413C872.7 401 845.3 377 818 355C790.7 333 763.3 313 736.2 323C709 333 682 373 654.8 384C627.7 395 600.3 377 573 354C545.7 331 518.3 303 491 293C463.7 283 436.3 291 409 302C381.7 313 354.3 327 327 341C299.7 355 272.3 369 245.2 380C218 391 191 399 163.8 393C136.7 387 109.3 367 82 364C54.7 361 27.3 375 13.7 382L0 389Z" fill="#0059dd"></path><path d="M0 601L13.7 601C27.3 601 54.7 601 82 601C109.3 601 136.7 601 163.8 601C191 601 218 601 245.2 601C272.3 601 299.7 601 327 601C354.3 601 381.7 601 409 601C436.3 601 463.7 601 491 601C518.3 601 545.7 601 573 601C600.3 601 627.7 601 654.8 601C682 601 709 601 736.2 601C763.3 601 790.7 601 818 601C845.3 601 872.7 601 886.3 601L900 601L900 521L886.3 515C872.7 509 845.3 497 818 496C790.7 495 763.3 505 736.2 516C709 527 682 539 654.8 536C627.7 533 600.3 515 573 509C545.7 503 518.3 509 491 505C463.7 501 436.3 487 409 486C381.7 485 354.3 497 327 501C299.7 505 272.3 501 245.2 508C218 515 191 533 163.8 532C136.7 531 109.3 511 82 511C54.7 511 27.3 531 13.7 541L0 551Z" fill="#004cbb"></path></svg>